<svg viewBox="0 0 852 814" fill="none" xmlns="http://www.w3.org/2000/svg">
<path d="M34.003 35.896C34.003 16.566 49.673 0.895996 69.003 0.895996H846C865.33 0.895996 881 16.566 881 35.896V737.351C881 756.681 865.33 772.351 846 772.351H69.003C49.6731 772.351 34.003 756.681 34.003 737.351L34.003 35.896Z" fill="#4D5FCD" fill-opacity="0.32"/>
<path d="M0.609619 35.896C0.609619 16.566 16.2797 0.895996 35.6096 0.895996H756.715C776.045 0.895996 791.715 16.566 791.715 35.896V779.333C791.715 798.663 776.045 814.333 756.715 814.333H35.6096C16.2797 814.333 0.609619 798.663 0.609619 779.333L0.609619 35.896Z" fill="url(#paint0_linear_497_5)" fill-opacity="0.32"/>
<defs>
<linearGradient id="paint0_linear_497_5" x1="226.311" y1="-17.2719" x2="447.713" y2="800.374" gradientUnits="userSpaceOnUse">
<stop stop-color="#BC2ABF"/>
<stop offset="1" stop-color="#4458CF" stop-opacity="0"/>
</linearGradient>
</defs>
</svg>